<?xml version="1.0" standalone="no"?><!DOCTYPE svg PUBLIC "-//W3C//DTD SVG 1.1//EN" "http://www.w3.org/Graphics/SVG/1.1/DTD/svg11.dtd"><svg t="1713230709368" class="icon" viewBox="0 0 1024 1024" version="1.1" xmlns="http://www.w3.org/2000/svg" p-id="6267" xmlns:xlink="http://www.w3.org/1999/xlink" width="128" height="128"><path d="M284.672 674.816V477.696c0-32.768-13.824-62.976-36.864-83.968l368.64-309.248c11.776-10.24 13.824-28.16 3.584-39.936s-28.16-13.824-39.936-3.584L192.512 366.08C133.12 354.816 74.752 391.168 59.904 450.56l224.768 224.256zM170.496 477.696c-15.872 0-28.672-12.8-28.672-28.672 0-15.872 12.8-28.16 28.672-28.672 15.872 0 28.16 12.8 28.672 28.672 0 15.872-12.8 28.672-28.672 28.672zM284.672 755.2l-227.84-227.328v80.384l227.84 227.328z" fill="#ffffff" p-id="6268"></path><path d="M932.864 961.536c0.512-3.072 1.024-6.144 1.024-9.216 1.024-58.88 1.024-117.76 0.512-176.64 0-12.8-3.072-26.112-4.608-38.4 11.264-3.072 23.552-6.656 35.84-9.728 1.024-5.12 2.048-12.288 0-19.456-9.216-24.064-23.04-40.448-52.224-36.864-4.096 0.512-12.288-8.192-14.336-14.336-13.824-35.84-27.136-72.192-39.936-108.544-7.68-23.04-24.064-38.4-46.08-44.544-30.208-8.192-60.928-13.312-91.648-19.968-44.544-6.656-84.992-6.656-134.144 0-17.408 2.56-34.816 4.608-52.224 8.192-46.08 8.704-81.92 29.184-95.232 78.848-7.68 29.696-19.456 58.368-30.72 87.04-2.048 5.632-9.216 13.824-13.312 13.312-32.256-4.096-44.544 15.36-53.248 40.96-1.536 6.144-0.512 11.264 0 15.872 12.288 3.072 24.576 6.656 33.28 8.704-0.512 46.592-1.536 92.672-2.048 139.264-0.512 25.088-1.024 49.664 0.512 74.752 0 3.584 1.024 7.68 1.536 11.776H284.672v-45.056l-227.328-227.328v80.384L249.344 962.56H168.448l-111.616-111.616V962.56H0v28.672h1024V962.56h-91.136zM880.64 761.344c12.8-4.096 21.504 6.656 22.016 20.992 0.512 16.896 5.632 36.352-17.92 41.472-16.896 4.096-34.816 4.608-49.152 6.144-16.384-1.536-29.696-1.024-41.984-4.096-15.872-3.584-20.992-22.016-6.656-28.672 29.696-14.336 61.44-26.112 93.696-35.84z m-432.128-81.408c15.36-43.008 28.672-82.432 44.032-121.344 3.072-7.68 14.336-13.824 23.04-16.384 20.992-5.12 42.496-9.728 64-9.728 65.024 0.512 129.536 3.072 194.56 5.632 26.624 1.024 44.544 14.848 52.224 42.496 8.704 32.256 19.968 63.488 31.744 98.816-137.216 30.208-270.336 29.184-409.6 0.512z m-41.984 97.28c4.096-18.944 18.944-19.456 32.256-15.36 26.624 8.704 52.736 19.456 78.336 31.232 6.144 3.072 13.312 14.848 11.776 19.456-2.56 6.656-12.288 12.8-19.968 14.848-10.752 2.56-22.528 3.072-33.28 3.072-16.384-1.536-32.768-2.048-48.64-5.632-20.992-4.096-26.624-19.968-20.48-47.616z m97.792 145.408h302.592c4.608 12.288 1.024 26.112 2.56 38.4H496.64c2.56-12.288 5.12-27.136 7.68-38.4z" fill="#ffffff" p-id="6269"></path></svg>