<?xml version="1.0" standalone="no"?><!DOCTYPE svg PUBLIC "-//W3C//DTD SVG 1.1//EN" "http://www.w3.org/Graphics/SVG/1.1/DTD/svg11.dtd"><svg t="1752196719354" class="icon" viewBox="0 0 1024 1024" version="1.1" xmlns="http://www.w3.org/2000/svg" p-id="30923" xmlns:xlink="http://www.w3.org/1999/xlink" width="60" height="60"><path d="M358.4 936.362667V803.413333H232.704v132.949334H132.693333V803.413333H0v-57.344h132.693333V434.346667H0v-57.344h132.693333V241.749333l51.2-71.082666 48.810667 71.082666V374.613333h123.392V241.749333l51.2-71.082666 51.2 71.082666V374.613333h123.306667V241.749333l51.2-71.082666 51.2 71.082666v135.253334h123.392V241.749333l51.2-71.082666 51.2 71.082666v135.253334H1024v57.344h-114.005333v314.026666H1024v57.344h-114.005333V938.666667h-102.4V805.717333H684.202667V938.666667h-102.4V805.717333H458.496V938.666667H358.4v-2.304z m500.394667-194.816a30.549333 30.549333 0 0 0-30.293334 29.781333c0 16.042667 13.994667 29.866667 30.293334 29.866667 16.213333 0 30.208-13.824 30.208-29.866667a30.549333 30.549333 0 0 0-30.208-29.866667z m-225.792 0a30.549333 30.549333 0 0 0-30.208 29.781333c0 16.042667 13.909333 29.866667 30.208 29.866667 16.298667 0 30.293333-13.824 30.293333-29.866667 2.304-16.042667-11.690667-29.866667-30.293333-29.866667z m-225.706667 0a30.549333 30.549333 0 0 0-30.293333 29.781333c0 16.042667 13.994667 29.866667 30.293333 29.866667 16.213333 0 30.208-13.824 30.208-29.866667 2.389333-16.042667-11.605333-29.866667-30.208-29.866667z m-223.402667 0a30.549333 30.549333 0 0 0-30.293333 29.781333c0 16.042667 13.994667 29.866667 30.293333 29.866667 16.213333 0 30.208-13.824 30.208-29.866667a30.549333 30.549333 0 0 0-30.208-29.866667z m500.309334 4.522666h123.392V434.346667H684.202667v311.722666z m-225.706667 0h123.306667V434.346667H458.496v311.722666z m-225.792 0h123.392V434.346667H232.704v311.722666z m626.090667-373.674666a30.549333 30.549333 0 0 0-30.293334 29.866666c0 15.957333 13.994667 29.781333 30.293334 29.781334 16.213333 0 30.208-13.824 30.208-29.866667a30.549333 30.549333 0 0 0-30.208-29.781333z m-225.792 0a30.549333 30.549333 0 0 0-30.208 29.866666c0 15.957333 13.909333 29.781333 30.208 29.781334 16.298667 0 30.293333-13.824 30.293333-29.866667 2.304-16.042667-11.690667-29.781333-30.293333-29.781333z m-225.706667 0a30.549333 30.549333 0 0 0-30.293333 29.866666c0 15.957333 13.994667 29.781333 30.293333 29.781334 16.213333 0 30.208-13.824 30.208-29.866667 2.389333-16.042667-11.605333-29.781333-30.208-29.781333z m-223.402667 0a30.549333 30.549333 0 0 0-30.293333 29.866666c0 15.957333 13.994667 29.781333 30.293333 29.781334 16.213333 0 30.208-13.824 30.208-29.866667a30.549333 30.549333 0 0 0-30.208-29.781333z" fill="#ffffff" p-id="30924"></path></svg>