<?xml version="1.0" standalone="no"?><!DOCTYPE svg PUBLIC "-//W3C//DTD SVG 1.1//EN" "http://www.w3.org/Graphics/SVG/1.1/DTD/svg11.dtd"><svg t="1752196565052" class="icon" viewBox="0 0 1026 1024" version="1.1" xmlns="http://www.w3.org/2000/svg" p-id="12982" xmlns:xlink="http://www.w3.org/1999/xlink" width="60.1171875" height="60"><path d="M854.308571 1006.445714H172.617143c-23.405714 0-43.154286-19.017143-43.154286-43.154285 0-23.405714 19.017143-43.154286 43.154286-43.154286h681.691428c23.405714 0 43.154286 19.017143 43.154286 43.154286 0 24.137143-19.017143 43.154286-43.154286 43.154285zM928.914286 9.508571H98.011429C43.885714 9.508571 0 54.125714 0 108.251429v607.817142c0 54.125714 43.885714 98.011429 98.011429 98.011429H928.914286c54.125714 0 98.011429-43.885714 98.011428-98.011429V108.251429c0.731429-54.125714-43.154286-98.742857-98.011428-98.742858zM471.04 708.022857c-4.388571 1.462857-8.777143 2.194286-13.165714 2.194286-17.554286 0-33.645714-10.971429-39.497143-28.525714L264.045714 204.8c-7.314286-21.942857 5.12-45.348571 27.062857-51.931429 21.942857-7.314286 45.348571 5.12 51.931429 27.062858L497.371429 656.091429c7.314286 21.211429-4.388571 44.617143-26.331429 51.931428zM563.2 414.72c-51.2 0-67.291429 67.291429-69.485714 67.291429l-87.771429-272.822858c9.508571-16.091429 27.794286-26.331429 46.811429-26.331428 105.325714 0 124.342857 30.72 217.965714 81.188571 93.622857 50.468571 152.868571-5.851429 152.868571-5.851428-19.748571 198.948571-209.92 156.525714-260.388571 156.525714z m0 0" fill="#ffffff" p-id="12983"></path></svg>