<?xml version="1.0" standalone="no"?><!DOCTYPE svg PUBLIC "-//W3C//DTD SVG 1.1//EN" "http://www.w3.org/Graphics/SVG/1.1/DTD/svg11.dtd"><svg t="1708586356938" class="icon" viewBox="0 0 1024 1024" version="1.1" xmlns="http://www.w3.org/2000/svg" p-id="6172" xmlns:xlink="http://www.w3.org/1999/xlink" width="200" height="200"><path d="M249.437 551.421c0 3.383-3.283 6.151-7.267 6.151-3.986 0-7.268-2.769-7.268-6.151v-83.819c0-3.435 3.224-6.204 7.268-6.204 3.985 0 7.267 2.769 7.267 6.204v83.819zM793.527 551.657c0 3.383-3.282 6.151-7.267 6.151-3.927 0-7.267-2.769-7.267-6.151v-83.819c0-3.435 3.34-6.152 7.267-6.152 3.986 0 7.267 2.717 7.267 6.152v83.819z" fill="#ffffff" p-id="6173"></path><path d="M487.182 138.735v747.859c0 1.845 2.035 3.34 4.545 3.34h362.528c2.51 0 4.545-1.495 4.545-3.34V142.075c0-1.845-2.035-3.341-4.545-3.341l-367.073 0.001z m333.619 725.096H529.107c-2.51 0-4.545-1.495-4.545-3.341V167.096c0-1.845 2.034-3.341 4.545-3.341h287.148c2.51 0 4.545 1.495 4.545 3.341v696.735h0.001z" fill="#ffffff" p-id="6174"></path><path d="M166.7 138.735v747.859c0 1.845 1.955 3.34 4.366 3.34H519.32c2.411 0 4.366-1.495 4.366-3.34V142.075c0-1.845-1.955-3.341-4.366-3.341l-352.62 0.001z m320.482 725.096h-280.21c-2.411 0-4.366-1.495-4.366-3.341V167.096c0-1.845 1.955-3.341 4.366-3.341h275.844c2.411 0 4.366 1.495 4.366 3.341v696.735z" fill="#ffffff" p-id="6175"></path><path d="M102.501 103.748v805.229c0 8.297 7.689 15.023 17.175 15.023h786.15c9.485 0 17.175-6.726 17.175-15.023V118.771c0-8.297-7.689-15.023-17.175-15.023H102.501zM890.94 896.983l-740.066 1.052c-9.493 0.014-17.198-6.713-17.202-15.016l-0.395-737.942c-0.004-8.3 7.686-15.03 17.175-15.03h723.314c9.485 0 17.175 6.726 17.175 15.023l-0.001 751.913z" fill="#ffffff" p-id="6176"></path></svg>