<?xml version="1.0" standalone="no"?><!DOCTYPE svg PUBLIC "-//W3C//DTD SVG 1.1//EN" "http://www.w3.org/Graphics/SVG/1.1/DTD/svg11.dtd"><svg t="1713230184158" class="icon" viewBox="0 0 1024 1024" version="1.1" xmlns="http://www.w3.org/2000/svg" p-id="4335" xmlns:xlink="http://www.w3.org/1999/xlink" width="128" height="128"><path d="M157.65 261.45c17.64 0 31.93-14.29 31.93-31.93v-61.14c0-20.62 15.73-37.4 35.05-37.4h63.41c17.64 0 31.93-14.29 31.93-31.93s-14.29-31.93-31.93-31.93h-63.41c-54.54 0-98.91 45.42-98.91 101.26v61.14c0 17.64 14.29 31.93 31.93 31.93zM799.56 67.13h-63.4c-17.64 0-31.93 14.29-31.93 31.93s14.29 31.93 31.93 31.93h63.4c19.33 0 35.06 16.78 35.06 37.4v61.14c0 17.64 14.29 31.93 31.93 31.93s31.93-14.29 31.93-31.93v-61.14c0-55.84-44.37-101.26-98.92-101.26zM866.55 503.37c-17.64 0-31.93 14.29-31.93 31.93v61.14c0 20.62-15.73 37.4-35.06 37.4H736.3c-33.09-29.39-70.68-51.7-111.24-66.06 70.6-39.68 118.48-115.21 118.48-201.81 0-127.63-103.82-231.45-231.44-231.45-127.63 0-231.46 103.82-231.46 231.45 0 86.66 47.94 162.23 118.62 201.89-40.95 14.77-78.17 37.4-110.08 66.09-0.39-0.01-0.75-0.11-1.14-0.11h-63.41c-19.32 0-35.05-16.78-35.05-37.4V535.3c0-17.64-14.29-31.93-31.93-31.93s-31.93 14.29-31.93 31.93v61.14c0 55.84 44.37 101.26 98.91 101.26h9.53c-38.13 56.48-60.65 124.95-60.65 198.95 0 33.35 27.14 60.48 60.49 60.48h546.43c38.74 0 70.26-31.52 70.26-70.26 0-68.65-20.33-133.77-57.93-189.17h6.81c54.55 0 98.92-45.42 98.92-101.26V535.3c-0.01-17.64-14.3-31.93-31.94-31.93zM344.5 365.96c0-92.41 75.19-167.59 167.6-167.59 92.4 0 167.58 75.18 167.58 167.59S604.51 533.55 512.1 533.55c-92.41 0-167.6-75.18-167.6-167.59z m435.92 527.31H237.38c1.75-148.5 118.44-274.14 261.61-280.82 75.99-3.42 147.77 23.34 202.62 75.71 54.95 52.44 85.21 123.01 85.21 198.71 0.01 3.53-2.86 6.4-6.4 6.4z" fill="#ffffff" p-id="4336"></path></svg>