<?xml version="1.0" standalone="no"?><!DOCTYPE svg PUBLIC "-//W3C//DTD SVG 1.1//EN" "http://www.w3.org/Graphics/SVG/1.1/DTD/svg11.dtd"><svg t="1648430368183" class="icon" viewBox="0 0 1024 1024" version="1.1" xmlns="http://www.w3.org/2000/svg" p-id="3224" xmlns:xlink="http://www.w3.org/1999/xlink" width="200" height="200"><defs><style type="text/css">@font-face { font-family: feedback-iconfont; src: url("//at.alicdn.com/t/font_1031158_u69w8yhxdu.woff2?t=1630033759944") format("woff2"), url("//at.alicdn.com/t/font_1031158_u69w8yhxdu.woff?t=1630033759944") format("woff"), url("//at.alicdn.com/t/font_1031158_u69w8yhxdu.ttf?t=1630033759944") format("truetype"); }
</style></defs><path d="M878 512V308.7c0-111.8-91.5-203.3-203.3-203.3s-203.3 91.5-203.3 203.3v406.7c0 67.3-54.7 122-122 122s-122-54.7-122-122V512h81.3V186.7h-244V512H146v203.3c0 111.8 91.5 203.3 203.3 203.3s203.3-91.5 203.3-203.3V308.7c0-67.3 54.7-122 122-122s122 54.7 122 122V512h-81.3v325.3h244V512H878zM146 268h81.3v162.7H146V268z m732 488h-81.3V593.3H878V756z" p-id="3225" fill="#ffffff"></path></svg>