<?xml version="1.0" standalone="no"?><!DOCTYPE svg PUBLIC "-//W3C//DTD SVG 1.1//EN" "http://www.w3.org/Graphics/SVG/1.1/DTD/svg11.dtd"><svg t="1770281767328" class="icon" viewBox="0 0 1024 1024" version="1.1" xmlns="http://www.w3.org/2000/svg" p-id="8385" xmlns:xlink="http://www.w3.org/1999/xlink" width="200" height="200"><path d="M954.1632 1024H512c-24.4224 0-44.2368-17.6128-44.2368-39.424 0-21.7088 19.8144-39.3216 44.2368-39.3216h442.1632c24.4224 0 44.2368 17.6128 44.2368 39.3728 0 21.76-19.8144 39.3728-44.2368 39.3728z m-265.3184-275.712h-44.1856v157.5424h-88.4736v-157.5424c0-56.2688 33.7408-108.288 88.4736-136.3968a195.84 195.84 0 0 1 176.8448 0c54.784 28.16 88.4736 80.128 88.4736 136.3968v157.5424h-221.184v-157.5424z m-176.8448 0v157.5424c-48.5376 0-87.9616 34.816-88.4736 77.9776-107.776-1.1776-210.4832-40.9088-285.0816-110.2336C63.8464 804.2496 23.6544 711.168 26.9312 615.168c-8.9088-99.328 27.648-197.632 101.376-272.5376 59.1872-59.0848 29.7984-185.088 29.7984-185.088C256.2048 220.5184 307.2 326.5536 290.816 433.2544 395.3664 307.5584 412.416 140.3904 335.0016 0c0 0 280.2176 100.0448 309.5552 354.4576a387.584 387.584 0 0 0 44.2368-196.9152s173.6704 113.408 176.5888 434.0224c-66.6624-45.2608-156.416-52.8384-231.424-19.5584-75.0592 33.28-122.368 101.632-121.9584 176.2816z" fill="#ffffff" p-id="8386"></path></svg>