<?xml version="1.0" standalone="no"?><!DOCTYPE svg PUBLIC "-//W3C//DTD SVG 1.1//EN" "http://www.w3.org/Graphics/SVG/1.1/DTD/svg11.dtd"><svg t="1770281889514" class="icon" viewBox="0 0 1024 1024" version="1.1" xmlns="http://www.w3.org/2000/svg" p-id="12030" xmlns:xlink="http://www.w3.org/1999/xlink" width="200" height="200"><path d="M826.881 759.165v-205c0-19.882-16.118-36-36-36-0.807 0-1.605 0.036-2.398 0.088H557.53V380.287c0-49.706-40.294-90-90-90s-90 40.294-90 90v188.202a311.892 311.892 0 0 0-10.665-4.677c-66.712-27.739-106.746-15.524-130.011 3.298a36.1 36.1 0 0 0-19.714 21.172c-16.045 22.772-29.522 60.399-11.24 102.281 1.07 11.424 7.477 21.29 16.703 27.092 14.164 16.293 32.526 25.64 50.391 34.725 40.537 20.616 96.054 48.85 150.968 184.933 5.334 13.207 18.267 22.531 33.385 22.531h272.189c15.647 0 28.956-9.985 33.919-23.929l61.054-163.9a35.86 35.86 0 0 0 2.372-12.85z m-521.248-70.961c-16.73-8.509-26.388-13.633-30.336-20.003-8.177-13.193-6.504-22.403-4.535-28.183 2.479-7.276 6.983-12.488 8.128-13.736l0.3-0.242 1.31-1.414c7.627-8.239 29.765-6.218 57.771 5.275 19.205 7.88 36.759 18.267 47.207 24.937 6.599 8.198 16.71 13.449 28.053 13.449 19.882 0 36-16.118 36-36v-252c0-9.941 8.059-18 18-18s18 8.059 18 18v173.879c0 19.882 16.118 36 36 36h233.351v162.512L704.53 887.845H481.242c-25.929-59.029-54.91-104.448-88.236-138.349-33.136-33.709-64.484-49.652-87.373-61.292z" p-id="12031" fill="#ffffff"></path><path d="M314.728 425.912c19.882 0 36-16.118 36-36a35.835 35.835 0 0 0-7.35-21.792l0.1-0.072c-16.991-23.978-26.98-53.268-26.98-84.893 0-81.186 65.814-147 147-147s147 65.814 147 147c0 32.296-10.423 62.153-28.078 86.409l0.185 0.132a35.827 35.827 0 0 0-6.211 20.216c0 19.882 16.118 36 36 36 13.601 0 25.437-7.545 31.56-18.675 24.301-35.272 38.544-78.01 38.544-124.082 0-120.95-98.05-219-219-219s-219 98.05-219 219c0 46.568 14.545 89.733 39.325 125.222 6.289 10.502 17.774 17.535 30.905 17.535z" p-id="12032" fill="#ffffff"></path></svg>