<?xml version="1.0" standalone="no"?><!DOCTYPE svg PUBLIC "-//W3C//DTD SVG 1.1//EN" "http://www.w3.org/Graphics/SVG/1.1/DTD/svg11.dtd"><svg t="1648026081790" class="icon" viewBox="0 0 1024 1024" version="1.1" xmlns="http://www.w3.org/2000/svg" p-id="4524" xmlns:xlink="http://www.w3.org/1999/xlink" width="16" height="16"><defs><style type="text/css">@font-face { font-family: feedback-iconfont; src: url("//at.alicdn.com/t/font_1031158_u69w8yhxdu.woff2?t=1630033759944") format("woff2"), url("//at.alicdn.com/t/font_1031158_u69w8yhxdu.woff?t=1630033759944") format("woff"), url("//at.alicdn.com/t/font_1031158_u69w8yhxdu.ttf?t=1630033759944") format("truetype"); }
</style></defs><path d="M393.880199 372.437995c-13.578721 54.314882-27.157441 106.932424-40.736162 161.247307-1.69734 8.4867 5.09202 20.368081 10.18404 27.157441 37.341481 47.525522 76.380303 96.748384 115.419125 142.576565 23.762761 27.157441 33.946801 57.709562 37.341481 93.353704 5.09202 57.709562 11.88138 115.419124 16.973401 173.128686 1.69734 22.065421 3.39468 44.130842-23.762761 52.617543-22.065421 6.78936-39.038822-10.18404-45.828182-42.433502l-35.644141-173.128687c-3.39468-11.88138-10.18404-27.157441-18.670741-35.644141-67.893603-61.104242-137.484545-120.511145-207.075488-178.220707C180.01535 574.421463 171.52865 557.448062 178.31801 528.593281c16.973401-62.801582 30.552121-125.603165 47.525522-193.496767C181.71269 358.859275 144.371209 379.227356 135.884509 431.844898c-5.09202 37.341481-18.670741 72.985623-32.249462 106.932424-3.39468 10.18404-18.670741 15.276061-28.854781 23.762761-3.39468-11.88138-13.578721-23.762761-11.88138-33.946802 10.18404-54.314882 22.065421-108.629764 35.644141-162.944646 5.09202-16.973401 15.276061-33.946801 28.854781-44.130842 45.828182-39.038822 95.051044-78.077643 142.576566-115.419124 47.525522-37.341481 105.235084-23.762761 134.089865 27.157441 8.4867 13.578721 15.276061 28.854781 20.368081 44.130842 30.552121 88.261683 83.169663 157.852626 162.944646 207.075488 10.18404 6.78936 20.368081 28.854781 16.973401 37.341481-8.4867 20.368081-27.157441 8.4867-40.736162 1.69734-10.18404-5.09202-20.368081-11.88138-30.552121-16.973401-59.406902-30.552121-118.813805-59.406902-130.695185-137.484545-3.39468 0-6.78936 1.69734-8.4867 3.39468z" fill="#ffffff" p-id="4525"></path><path d="M169.83131 594.789544c30.552121 22.065421 59.406902 40.736162 84.867003 62.801582 6.78936 5.09202 10.18404 18.670741 8.486701 27.157441-10.18404 64.498923-28.854781 123.905825-72.985623 174.826027-35.644141 42.433502-64.498923 89.959023-96.748384 135.787205-13.578721 20.368081-30.552121 33.946801-52.617542 18.670741-22.065421-13.578721-15.276061-33.946801-5.09202-54.314882 20.368081-37.341481 39.038822-76.380303 61.104242-112.024444 42.433502-66.196263 61.104242-137.484545 66.196263-215.562189 1.69734-10.18404 3.39468-20.368081 6.78936-37.341481zM356.538717 7.509881c44.130842 0 78.077643 35.644141 78.077643 81.472323-1.69734 44.130842-33.946801 76.380303-78.077643 76.380303-45.828182 0-78.077643-33.946801-76.380303-79.774983-1.69734-45.828182 32.249461-78.077643 76.380303-78.077643zM838.583296 576.118803c-10.18404 0-20.368081-5.09202-27.157441-13.57872-11.88138-15.276061-10.18404-37.341481 5.09202-50.920202 67.893603-56.012222 106.932424-137.484545 106.932424-227.443569 0-84.867003-35.644141-166.339326-100.143064-220.654209-15.276061-13.578721-16.973401-35.644141-3.39468-50.920202 13.578721-15.276061 35.644141-16.973401 50.920202-3.39468 79.774983 67.893603 123.905825 168.036667 123.905825 274.969091 0 110.327104-49.222862 213.864848-134.089865 283.455791-5.09202 6.78936-13.578721 8.4867-22.065421 8.4867z" fill="#ffffff" p-id="4526"></path><path d="M729.953532 506.52786c-10.18404 0-22.065421-5.09202-28.854781-13.57872-11.88138-15.276061-8.4867-37.341481 6.78936-49.222862 49.222862-35.644141 78.077643-93.353704 78.077643-156.155286s-28.854781-118.813805-78.077643-156.155286c-15.276061-11.88138-18.670741-33.946801-6.78936-49.222862 11.88138-15.276061 33.946801-18.670741 49.222861-6.78936 66.196263 49.222862 106.932424 128.997845 106.932425 212.167508s-39.038822 162.944646-106.932425 212.167508c-5.09202 3.39468-13.578721 6.78936-20.36808 6.78936z" fill="#ffffff" p-id="4527"></path><path d="M616.231747 443.726278c-11.88138 0-23.762761-6.78936-30.552121-18.670741-10.18404-16.973401-3.39468-39.038822 13.578721-49.222862 32.249461-18.670741 52.617542-52.617542 52.617542-91.656363 0-37.341481-18.670741-71.288283-49.222862-89.959024-16.973401-10.18404-22.065421-32.249461-11.881381-49.222862 10.18404-16.973401 32.249461-22.065421 49.222862-11.88138 50.920202 32.249461 83.169663 89.959023 83.169663 151.063266 0 64.498923-33.946801 122.208485-88.261683 152.760606-6.78936 5.09202-13.578721 6.78936-18.670741 6.78936z" fill="#ffffff" p-id="4528"></path></svg>