<?xml version="1.0" standalone="no"?><!DOCTYPE svg PUBLIC "-//W3C//DTD SVG 1.1//EN" "http://www.w3.org/Graphics/SVG/1.1/DTD/svg11.dtd"><svg t="1700617905532" class="icon" viewBox="0 0 1152 1024" version="1.1" xmlns="http://www.w3.org/2000/svg" p-id="1500" xmlns:xlink="http://www.w3.org/1999/xlink" width="225" height="200"><path d="M492.48 607.488v177.088a44.288 44.288 0 1 1-88.512 0V312.448c0-24.448 19.84-44.224 44.256-44.256h184.416a169.664 169.664 0 0 1 0 339.296h-140.16z m0-250.752v162.24h140.16a81.152 81.152 0 0 0 0-162.24h-140.16z" fill="#ffffff" p-id="1501"></path><path d="M899.68 991.04h-0.512a27.296 27.296 0 0 1-23.68-14.944 31.36 31.36 0 0 1 0.224-29.504 27.168 27.168 0 0 1 23.968-14.528h126.176a26.88 26.88 0 0 0 21.6-11.2 31.168 31.168 0 0 0 5.184-25.056L879.744 113.792c-2.944-13.28-14.048-22.688-26.752-22.688H307.616a28 28 0 0 0-26.752 22.56L103.136 895.552a31.168 31.168 0 0 0 5.12 25.184 26.816 26.816 0 0 0 21.568 11.296h129.248v0.736c12.48 3.104 21.312 15.04 21.312 28.8 0 13.76-8.832 25.632-21.312 28.736v0.768H87.68a53.792 53.792 0 0 1-43.328-22.656 62.4 62.4 0 0 1-10.112-50.528L227.52 77.024c6.08-26.304 28.096-44.864 53.408-44.864h601.92c25.568 0 47.776 18.976 53.536 45.76l181.184 840.896a62.208 62.208 0 0 1-10.56 49.984c-10.432 14.08-26.24 22.304-43.008 22.304h-164.32v-0.032z" fill="#ffffff" p-id="1502"></path></svg>