<?xml version="1.0" standalone="no"?><!DOCTYPE svg PUBLIC "-//W3C//DTD SVG 1.1//EN" "http://www.w3.org/Graphics/SVG/1.1/DTD/svg11.dtd"><svg t="1652423302043" class="icon" viewBox="0 0 1024 1024" version="1.1" xmlns="http://www.w3.org/2000/svg" p-id="1934" xmlns:xlink="http://www.w3.org/1999/xlink" width="16" height="16"><defs><style type="text/css">@font-face { font-family: feedback-iconfont; src: url("//at.alicdn.com/t/font_1031158_u69w8yhxdu.woff2?t=1630033759944") format("woff2"), url("//at.alicdn.com/t/font_1031158_u69w8yhxdu.woff?t=1630033759944") format("woff"), url("//at.alicdn.com/t/font_1031158_u69w8yhxdu.ttf?t=1630033759944") format("truetype"); }
</style></defs><path d="M683.52632098 272.12205827a104.98705383 104.98705383 0 1 0-104.98705381-105.11650766 105.11650765 105.11650765 0 0 0 104.98705381 105.11650766z m0 0" fill="#FF7D14" p-id="1935"></path><path d="M856.21772642 241.82986272c-60.32548347 84.40389531-140.97521778 94.24238617-227.83873581 42.59030913-5.95487605-3.49525333-32.23400297-17.86462815-37.92997136-21.35988148-139.81013333-82.9799032-279.36135902-50.35753876-372.95647605 80.64973432-39.74232494 55.7945995 52.16989235 108.61176098 91.52385582 53.46443062 48.41573136-67.70435161 109.90629925-87.2518795 177.09283555-65.7625442-34.43471803 59.67821431-64.46800592 119.09752098-107.05831507 203.5014163S242.7360395 686.76266667 152.63617581 634.07495902c-65.11527506-38.05942518-123.75785876 55.40623803-58.90149136 93.33620937 123.11058963 71.84687408 267.45160691 27.70311902 341.11083457-65.7625442a77.80175013 77.80175013 0 0 0 8.15559111 3.62470717c60.19602963 20.97152 139.16286419 76.7661195 163.11182222 96.57255506s65.37418272 120.52151309 89.84095604 171.26741333c29.77438025 61.36111408 125.82912 16.6995437 96.05473976-45.04993185-27.83257283-57.47749925-74.43595061-172.17359013-110.94192988-201.1712474-29.12711111-23.30168889-85.82788741-66.53926717-133.85525729-91.13549433q48.67463902-94.63074765 102.00961582-186.54296493c113.66046025 34.8230795 221.6249521-6.2137837 298.52052542-113.91936791 39.74232494-55.7945995-52.16989235-108.61176098-91.5238558-53.46443061z m0 0" fill="#FF7D14" p-id="1936"></path></svg>