<?xml version="1.0" standalone="no"?><!DOCTYPE svg PUBLIC "-//W3C//DTD SVG 1.1//EN" "http://www.w3.org/Graphics/SVG/1.1/DTD/svg11.dtd"><svg t="1770281659354" class="icon" viewBox="0 0 1024 1024" version="1.1" xmlns="http://www.w3.org/2000/svg" p-id="5086" xmlns:xlink="http://www.w3.org/1999/xlink" width="200" height="200"><path d="M928 144H96c-17.6 0-32 14.4-32 32v272c0 105.6 86.4 192 192 192h-32v144c0 52.8 43.2 96 96 96h384c52.8 0 96-43.2 96-96v-144h-32c105.6 0 192-86.4 192-192V176c0-17.6-14.4-32-32-32zM736 752c0 35.2-28.8 64-64 64H352c-35.2 0-64-28.8-64-64v-112h64v48c0 17.6 14.4 32 32 32s32-14.4 32-32v-48h64v48c0 17.6 14.4 32 32 32s32-14.4 32-32v-48h64v48c0 17.6 14.4 32 32 32s32-14.4 32-32v-48h64v112z m160-320c0 80-64 144-144 144H272c-80 0-144-64-144-144v-80h768v80z m0-144H128v-48c0-17.6 14.4-32 32-32h704c17.6 0 32 14.4 32 32v48z" fill="#ffffff" p-id="5087"></path></svg>