<?xml version="1.0" standalone="no"?><!DOCTYPE svg PUBLIC "-//W3C//DTD SVG 1.1//EN" "http://www.w3.org/Graphics/SVG/1.1/DTD/svg11.dtd"><svg t="1770281836869" class="icon" viewBox="0 0 1024 1024" version="1.1" xmlns="http://www.w3.org/2000/svg" p-id="9861" xmlns:xlink="http://www.w3.org/1999/xlink" width="200" height="200"><path d="M512 781.5168c-176.8448 0-333.4144-36.7104-430.08-93.2352v50.2784a172.4416 172.4416 0 0 0 171.9808 172.032h516.0448a172.4928 172.4928 0 0 0 172.032-172.032v-50.2784c-96.4608 56.32-253.0304 93.2352-430.08 93.2352z m0-408.4736c-237.4144 0-430.08 81.92-430.08 182.6816s192.512 182.784 430.08 182.784 430.08-81.92 430.08-182.784-192.5632-182.6304-430.08-182.6304z m86.016 278.272a31.0272 31.0272 0 0 1-30.3616-24.7296c-6.0928-4.1472-24.8832-11.8272-55.6544-11.8272s-49.5616 7.68-55.6544 11.8272a31.0272 31.0272 0 0 1-61.44-6.2976c0-13.2608 5.7344-38.0928 44.1344-54.3744A190.464 190.464 0 0 1 512 552.96a190.2592 190.2592 0 0 1 72.9088 13.2096c38.4 16.2816 44.1344 40.96 44.1344 54.3744a31.0784 31.0784 0 0 1-31.0272 31.0272z m171.9808-43.0592a31.0272 31.0272 0 0 1-31.0272-31.0272c0-15.104-22.2208-34.304-56.7296-48.9472-45.0048-19.0976-105.472-29.6448-170.2912-29.6448s-125.2352 10.5472-170.24 29.6448c-34.5088 14.4384-56.7808 33.8432-56.7808 48.9472a31.0272 31.0272 0 0 1-62.0544 0c0-42.5472 33.536-80.128 94.464-106.0352 52.48-22.3232 121.6-34.6624 194.56-34.6624s142.08 12.3392 194.56 34.6624c60.8768 25.6 94.464 63.5904 94.464 106.0352a31.0272 31.0272 0 0 1-30.976 31.0272zM512 304.4864a31.0272 31.0272 0 0 1-31.0272-31.0272v-129.024a31.0272 31.0272 0 0 1 62.0544 0v128.9216a31.0784 31.0784 0 0 1-31.0272 31.1296zM291.84 352.768a30.72 30.72 0 0 1-21.9136-9.1136L178.432 252.416a31.0784 31.0784 0 0 1 43.9296-43.9296l91.2384 91.2384A31.0272 31.0272 0 0 1 291.84 352.768z m440.832 0a31.0784 31.0784 0 0 1-21.9136-53.0432l91.0336-91.2384a31.0784 31.0784 0 0 1 43.9296 43.9296l-91.2896 91.2384a30.72 30.72 0 0 1-21.9648 9.1136z" p-id="9862" fill="#ffffff"></path></svg>