<?xml version="1.0" standalone="no"?><!DOCTYPE svg PUBLIC "-//W3C//DTD SVG 1.1//EN" "http://www.w3.org/Graphics/SVG/1.1/DTD/svg11.dtd"><svg t="1752132758595" class="icon" viewBox="0 0 1024 1024" version="1.1" xmlns="http://www.w3.org/2000/svg" p-id="13970" xmlns:xlink="http://www.w3.org/1999/xlink" width="60" height="60"><path d="M625.777778 82.17284c34.910815 0 63.209877 28.299062 63.209876 63.209876v802.765432H183.308642c-34.910815 0-63.209877-28.299062-63.209877-63.209876V452.810272C120.098765 248.111407 279.122173 82.17284 475.294025 82.17284zM467.753086 568.888889H341.333333a44.246914 44.246914 0 0 0 0 88.493827h126.419753a44.246914 44.246914 0 0 0 0-88.493827z m0-176.987654H341.333333a44.246914 44.246914 0 0 0 0 88.493827h126.419753a44.246914 44.246914 0 0 0 0-88.493827z" fill="#ffffff" p-id="13971"></path><path d="M739.555556 262.535901V948.148148h101.135802c34.910815 0 63.209877-28.299062 63.209877-63.209876V448.037926a63.209877 63.209877 0 0 0-19.304297-45.473185L739.555556 262.535901z" fill="#ffffff" opacity=".6" p-id="13972"></path></svg>