<?xml version="1.0" standalone="no"?><!DOCTYPE svg PUBLIC "-//W3C//DTD SVG 1.1//EN" "http://www.w3.org/Graphics/SVG/1.1/DTD/svg11.dtd"><svg t="1770281700959" class="icon" viewBox="0 0 1024 1024" version="1.1" xmlns="http://www.w3.org/2000/svg" p-id="6137" xmlns:xlink="http://www.w3.org/1999/xlink" width="200" height="200"><path d="M427.2 115.2c0-4.8-3.2-8-8-8H156.8c-4.8 0-8 3.2-8 8v51.2h280V115.2zM241.6 299.2c-4.8 0-8 3.2-8 8v51.2h193.6v-51.2c0-4.8-3.2-8-8-8H241.6z m185.6 246.4v-51.2H163.2v51.2c0 4.8 3.2 8 8 8h248c4.8 0 8-3.2 8-8z m208 75.2V147.2h-56v473.6c-75.2 11.2-128 80-121.6 156.8 6.4 76.8 72 134.4 147.2 131.2 75.2 1.6 139.2-56 147.2-131.2 8-75.2-43.2-142.4-116.8-156.8z m219.2 44.8c-24-52.8-67.2-96-120-121.6-4.8-1.6-8-6.4-8-12.8V169.6c0-14.4-1.6-27.2-6.4-40-6.4-20.8-20.8-38.4-38.4-51.2-19.2-14.4-41.6-22.4-67.2-24-22.4-1.6-44.8 3.2-64 14.4-19.2 9.6-36.8 25.6-48 44.8-9.6 16-14.4 35.2-12.8 54.4v363.2c0 4.8-3.2 9.6-8 11.2-28.8 14.4-54.4 32-76.8 56-30.4 30.4-51.2 70.4-59.2 112-16 73.6 4.8 148.8 56 204.8 24 27.2 54.4 48 88 64 33.6 14.4 68.8 22.4 104 25.6 36.8 1.6 73.6-3.2 107.2-16 43.2-14.4 83.2-40 113.6-73.6 30.4-33.6 51.2-75.2 57.6-120 8-43.2 1.6-89.6-17.6-129.6zM816 779.2c-3.2 33.6-17.6 67.2-40 92.8-17.6 22.4-38.4 40-64 52.8-41.6 22.4-91.2 30.4-139.2 24-35.2-4.8-70.4-19.2-99.2-40-17.6-12.8-32-28.8-44.8-46.4-16-22.4-27.2-49.6-30.4-76.8-4.8-35.2 0-72 17.6-105.6 17.6-33.6 43.2-62.4 76.8-80 14.4-8 28.8-14.4 44.8-19.2 6.4-3.2 9.6-6.4 9.6-11.2V172.8c0-12.8 1.6-24 8-35.2 12.8-20.8 36.8-30.4 62.4-27.2 27.2 3.2 49.6 25.6 51.2 54.4v404.8c0 6.4 1.6 9.6 8 11.2 51.2 16 94.4 51.2 120 99.2 16 28.8 24 64 19.2 99.2z" p-id="6138" fill="#ffffff"></path></svg>