{
	"asset":{
		"version":"2.0",
		"generator":"Created using the official Cinema 4D glTF Exporter 1.000x290161"
	},
	"scenes":[{
		"nodes":[0]
	}],
	"nodes":[{
		"name":"空白",
		"translation":[0,
		0,
		0],
		"rotation":[0,
		-0.707,
		0,
		0.707],
		"scale":[1,
		1,
		1],
		"children":[1,
		2,
		3,
		4,
		5,
		6,
		7,
		8,
		9,
		10,
		11]
	},
	{
		"name":"black_1",
		"translation":[0,
		0.002,
		0],
		"rotation":[0,
		0,
		0,
		-1],
		"scale":[1,
		1,
		1],
		"mesh":0
	},
	{
		"name":"body_1",
		"translation":[0,
		-0.001,
		0],
		"rotation":[0,
		0,
		0,
		-1],
		"scale":[1,
		1,
		1],
		"mesh":1
	},
	{
		"name":"chrome_1",
		"translation":[0,
		0.001,
		0],
		"rotation":[0,
		0,
		0,
		-1],
		"scale":[1,
		1,
		1],
		"mesh":2
	},
	{
		"name":"glass_1",
		"translation":[0,
		-0.001,
		0],
		"rotation":[0,
		0,
		0,
		-1],
		"scale":[1,
		1,
		1],
		"mesh":3
	},
	{
		"name":"headlght_1",
		"translation":[0,
		0.005,
		0],
		"rotation":[0,
		0,
		0,
		-1],
		"scale":[1,
		1,
		1],
		"mesh":4
	},
	{
		"name":"mirror_1",
		"translation":[0,
		-0.001,
		0],
		"rotation":[0,
		0,
		0,
		-1],
		"scale":[1,
		1,
		1],
		"mesh":5
	},
	{
		"name":"plastic_1",
		"translation":[0,
		-0.001,
		0],
		"rotation":[0,
		0,
		0,
		-1],
		"scale":[1,
		1,
		1],
		"mesh":6
	},
	{
		"name":"plastic_1.1",
		"translation":[0,
		-0.001,
		0],
		"rotation":[0,
		0,
		0,
		-1],
		"scale":[1,
		1,
		1],
		"mesh":7
	},
	{
		"name":"rearlght_1",
		"translation":[0,
		-0.001,
		0],
		"rotation":[0,
		0,
		0,
		-1],
		"scale":[1,
		1,
		1],
		"mesh":8
	},
	{
		"name":"tyre_1",
		"translation":[0,
		-0.001,
		0],
		"rotation":[0,
		0,
		0,
		-1],
		"scale":[1,
		1,
		1],
		"mesh":9
	},
	{
		"name":"wheel_1",
		"translation":[0,
		-0.001,
		0],
		"rotation":[0,
		0,
		0,
		-1],
		"scale":[1,
		1,
		1],
		"mesh":10
	}],
	"meshes":[{
		"primitives":[{
			"attributes":{
				"POSITION":1,
				"NORMAL":2,
				"TEXCOORD_0":3
			},
			"indices":0,
			"material":0
		}]
	},
	{
		"primitives":[{
			"attributes":{
				"POSITION":5,
				"NORMAL":6,
				"TEXCOORD_0":7
			},
			"indices":4,
			"material":1
		}]
	},
	{
		"primitives":[{
			"attributes":{
				"POSITION":9,
				"NORMAL":10,
				"TEXCOORD_0":11
			},
			"indices":8,
			"material":2
		}]
	},
	{
		"primitives":[{
			"attributes":{
				"POSITION":13,
				"NORMAL":14,
				"TEXCOORD_0":15
			},
			"indices":12,
			"material":3
		}]
	},
	{
		"primitives":[{
			"attributes":{
				"POSITION":17,
				"NORMAL":18,
				"TEXCOORD_0":19
			},
			"indices":16,
			"material":4
		}]
	},
	{
		"primitives":[{
			"attributes":{
				"POSITION":21,
				"NORMAL":22,
				"TEXCOORD_0":23
			},
			"indices":20,
			"material":5
		}]
	},
	{
		"primitives":[{
			"attributes":{
				"POSITION":25,
				"NORMAL":26,
				"TEXCOORD_0":27
			},
			"indices":24,
			"material":6
		}]
	},
	{
		"primitives":[{
			"attributes":{
				"POSITION":29,
				"NORMAL":30,
				"TEXCOORD_0":31
			},
			"indices":28,
			"material":7
		}]
	},
	{
		"primitives":[{
			"attributes":{
				"POSITION":33,
				"NORMAL":34,
				"TEXCOORD_0":35
			},
			"indices":32,
			"material":8
		}]
	},
	{
		"primitives":[{
			"attributes":{
				"POSITION":37,
				"NORMAL":38,
				"TEXCOORD_0":39
			},
			"indices":36,
			"material":7
		}]
	},
	{
		"primitives":[{
			"attributes":{
				"POSITION":41,
				"NORMAL":42,
				"TEXCOORD_0":43
			},
			"indices":40,
			"material":9
		}]
	}],
	"accessors":[{
		"bufferView":0,
		"type":"SCALAR",
		"count":78,
		"componentType":5123,
		"byteOffset":0,
		"min":[0],
		"max":[35]
	},
	{
		"bufferView":1,
		"type":"VEC3",
		"count":36,
		"componentType":5126,
		"byteOffset":0,
		"min":[-0.918,
		0.301,
		2.051],
		"max":[0.918,
		0.439,
		2.412]
	},
	{
		"bufferView":1,
		"type":"VEC3",
		"count":36,
		"componentType":5126,
		"byteOffset":12,
		"min":[-0.765,
		-0.098,
		0.624],
		"max":[0.765,
		0.249,
		1]
	},
	{
		"bufferView":1,
		"type":"VEC2",
		"count":36,
		"componentType":5126,
		"byteOffset":24,
		"min":[0.462,
		0.482],
		"max":[0.538,
		0.487]
	},
	{
		"bufferView":2,
		"type":"SCALAR",
		"count":4398,
		"componentType":5123,
		"byteOffset":0,
		"min":[0],
		"max":[1649]
	},
	{
		"bufferView":3,
		"type":"VEC3",
		"count":1650,
		"componentType":5126,
		"byteOffset":0,
		"min":[-1.106,
		0.222,
		-2.426],
		"max":[1.106,
		1.606,
		2.424]
	},
	{
		"bufferView":3,
		"type":"VEC3",
		"count":1650,
		"componentType":5126,
		"byteOffset":12,
		"min":[-1,
		-1,
		-1],
		"max":[1,
		1,
		1]
	},
	{
		"bufferView":3,
		"type":"VEC2",
		"count":1650,
		"componentType":5126,
		"byteOffset":24,
		"min":[0,
		0],
		"max":[1,
		1]
	},
	{
		"bufferView":4,
		"type":"SCALAR",
		"count":72,
		"componentType":5123,
		"byteOffset":0,
		"min":[0],
		"max":[23]
	},
	{
		"bufferView":5,
		"type":"VEC3",
		"count":24,
		"componentType":5126,
		"byteOffset":0,
		"min":[-0.298,
		0.442,
		-2.343],
		"max":[0.298,
		0.884,
		2.426]
	},
	{
		"bufferView":5,
		"type":"VEC3",
		"count":24,
		"componentType":5126,
		"byteOffset":12,
		"min":[-0.041,
		-0.03,
		-0.914],
		"max":[0.041,
		0.439,
		1]
	},
	{
		"bufferView":5,
		"type":"VEC2",
		"count":24,
		"componentType":5126,
		"byteOffset":24,
		"min":[0.488,
		0.463],
		"max":[0.512,
		0.482]
	},
	{
		"bufferView":6,
		"type":"SCALAR",
		"count":228,
		"componentType":5123,
		"byteOffset":0,
		"min":[0],
		"max":[69]
	},
	{
		"bufferView":7,
		"type":"VEC3",
		"count":70,
		"componentType":5126,
		"byteOffset":0,
		"min":[-0.883,
		1.075,
		-1.796],
		"max":[0.883,
		1.508,
		1.128]
	},
	{
		"bufferView":7,
		"type":"VEC3",
		"count":70,
		"componentType":5126,
		"byteOffset":12,
		"min":[-0.942,
		0.33,
		-0.408],
		"max":[0.942,
		0.955,
		0.524]
	},
	{
		"bufferView":7,
		"type":"VEC2",
		"count":70,
		"componentType":5126,
		"byteOffset":24,
		"min":[0.463,
		0.437],
		"max":[0.537,
		0.455]
	},
	{
		"bufferView":8,
		"type":"SCALAR",
		"count":48,
		"componentType":5123,
		"byteOffset":0,
		"min":[0],
		"max":[19]
	},
	{
		"bufferView":9,
		"type":"VEC3",
		"count":20,
		"componentType":5126,
		"byteOffset":0,
		"min":[-0.955,
		0.679,
		1.824],
		"max":[0.955,
		0.895,
		2.304]
	},
	{
		"bufferView":9,
		"type":"VEC3",
		"count":20,
		"componentType":5126,
		"byteOffset":12,
		"min":[-0.821,
		0.365,
		0.345],
		"max":[0.821,
		0.616,
		0.818]
	},
	{
		"bufferView":9,
		"type":"VEC2",
		"count":20,
		"componentType":5126,
		"byteOffset":24,
		"min":[0.46,
		0.463],
		"max":[0.54,
		0.472]
	},
	{
		"bufferView":10,
		"type":"SCALAR",
		"count":60,
		"componentType":5123,
		"byteOffset":0,
		"min":[0],
		"max":[23]
	},
	{
		"bufferView":11,
		"type":"VEC3",
		"count":24,
		"componentType":5126,
		"byteOffset":0,
		"min":[-1.1,
		1.11,
		0.226],
		"max":[1.1,
		1.232,
		0.303]
	},
	{
		"bufferView":11,
		"type":"VEC3",
		"count":24,
		"componentType":5126,
		"byteOffset":12,
		"min":[-0.326,
		0,
		-0.946],
		"max":[0.326,
		0,
		-0.945]
	},
	{
		"bufferView":11,
		"type":"VEC2",
		"count":24,
		"componentType":5126,
		"byteOffset":24,
		"min":[0.454,
		0.449],
		"max":[0.546,
		0.454]
	},
	{
		"bufferView":12,
		"type":"SCALAR",
		"count":192,
		"componentType":5123,
		"byteOffset":0,
		"min":[0],
		"max":[111]
	},
	{
		"bufferView":13,
		"type":"VEC3",
		"count":112,
		"componentType":5126,
		"byteOffset":0,
		"min":[-0.887,
		1.086,
		-0.752],
		"max":[0.887,
		1.417,
		0.35]
	},
	{
		"bufferView":13,
		"type":"VEC3",
		"count":112,
		"componentType":5126,
		"byteOffset":12,
		"min":[-0.943,
		-1,
		-0.958],
		"max":[0.943,
		0.954,
		0.957]
	},
	{
		"bufferView":13,
		"type":"VEC2",
		"count":112,
		"componentType":5126,
		"byteOffset":24,
		"min":[0.463,
		0.441],
		"max":[0.537,
		0.455]
	},
	{
		"bufferView":14,
		"type":"SCALAR",
		"count":81,
		"componentType":5123,
		"byteOffset":0,
		"min":[0],
		"max":[22]
	},
	{
		"bufferView":15,
		"type":"VEC3",
		"count":23,
		"componentType":5126,
		"byteOffset":0,
		"min":[-0.499,
		0.644,
		2.22],
		"max":[0.499,
		0.864,
		2.404]
	},
	{
		"bufferView":15,
		"type":"VEC3",
		"count":23,
		"componentType":5126,
		"byteOffset":12,
		"min":[-0.195,
		0.235,
		0.679],
		"max":[0.195,
		0.732,
		0.972]
	},
	{
		"bufferView":15,
		"type":"VEC2",
		"count":23,
		"componentType":5126,
		"byteOffset":24,
		"min":[0.479,
		0.464],
		"max":[0.521,
		0.473]
	},
	{
		"bufferView":16,
		"type":"SCALAR",
		"count":60,
		"componentType":5123,
		"byteOffset":0,
		"min":[0],
		"max":[23]
	},
	{
		"bufferView":17,
		"type":"VEC3",
		"count":24,
		"componentType":5126,
		"byteOffset":0,
		"min":[-0.955,
		0.745,
		-2.308],
		"max":[0.955,
		0.985,
		-1.842]
	},
	{
		"bufferView":17,
		"type":"VEC3",
		"count":24,
		"componentType":5126,
		"byteOffset":12,
		"min":[-0.86,
		0.347,
		-0.764],
		"max":[0.86,
		0.734,
		-0.336]
	},
	{
		"bufferView":17,
		"type":"VEC2",
		"count":24,
		"componentType":5126,
		"byteOffset":24,
		"min":[0,
		0],
		"max":[0.999,
		0.999]
	},
	{
		"bufferView":18,
		"type":"SCALAR",
		"count":1920,
		"componentType":5123,
		"byteOffset":0,
		"min":[0],
		"max":[647]
	},
	{
		"bufferView":19,
		"type":"VEC3",
		"count":648,
		"componentType":5126,
		"byteOffset":0,
		"min":[-1.041,
		0,
		-1.897],
		"max":[1.041,
		0.758,
		1.765]
	},
	{
		"bufferView":19,
		"type":"VEC3",
		"count":648,
		"componentType":5126,
		"byteOffset":12,
		"min":[-1,
		-0.993,
		-0.998],
		"max":[1,
		0.993,
		0.998]
	},
	{
		"bufferView":19,
		"type":"VEC2",
		"count":648,
		"componentType":5126,
		"byteOffset":24,
		"min":[0.457,
		0.468],
		"max":[0.543,
		0.5]
	},
	{
		"bufferView":20,
		"type":"SCALAR",
		"count":864,
		"componentType":5123,
		"byteOffset":0,
		"min":[0],
		"max":[239]
	},
	{
		"bufferView":21,
		"type":"VEC3",
		"count":240,
		"componentType":5126,
		"byteOffset":0,
		"min":[-1.041,
		0.092,
		-1.804],
		"max":[1.041,
		0.667,
		1.671]
	},
	{
		"bufferView":21,
		"type":"VEC3",
		"count":240,
		"componentType":5126,
		"byteOffset":12,
		"min":[-1,
		0,
		0],
		"max":[1,
		0,
		0]
	},
	{
		"bufferView":21,
		"type":"VEC2",
		"count":240,
		"componentType":5126,
		"byteOffset":24,
		"min":[0.457,
		0.472],
		"max":[0.543,
		0.496]
	}],
	"bufferViews":[{
		"buffer":0,
		"byteOffset":0,
		"byteLength":156,
		"target":34963
	},
	{
		"buffer":0,
		"byteOffset":156,
		"byteLength":1152,
		"target":34962,
		"byteStride":32
	},
	{
		"buffer":1,
		"byteOffset":0,
		"byteLength":8796,
		"target":34963
	},
	{
		"buffer":1,
		"byteOffset":8796,
		"byteLength":52800,
		"target":34962,
		"byteStride":32
	},
	{
		"buffer":2,
		"byteOffset":0,
		"byteLength":144,
		"target":34963
	},
	{
		"buffer":2,
		"byteOffset":144,
		"byteLength":768,
		"target":34962,
		"byteStride":32
	},
	{
		"buffer":3,
		"byteOffset":0,
		"byteLength":456,
		"target":34963
	},
	{
		"buffer":3,
		"byteOffset":456,
		"byteLength":2240,
		"target":34962,
		"byteStride":32
	},
	{
		"buffer":4,
		"byteOffset":0,
		"byteLength":96,
		"target":34963
	},
	{
		"buffer":4,
		"byteOffset":96,
		"byteLength":640,
		"target":34962,
		"byteStride":32
	},
	{
		"buffer":5,
		"byteOffset":0,
		"byteLength":120,
		"target":34963
	},
	{
		"buffer":5,
		"byteOffset":120,
		"byteLength":768,
		"target":34962,
		"byteStride":32
	},
	{
		"buffer":6,
		"byteOffset":0,
		"byteLength":384,
		"target":34963
	},
	{
		"buffer":6,
		"byteOffset":384,
		"byteLength":3584,
		"target":34962,
		"byteStride":32
	},
	{
		"buffer":7,
		"byteOffset":0,
		"byteLength":162,
		"target":34963
	},
	{
		"buffer":7,
		"byteOffset":164,
		"byteLength":736,
		"target":34962,
		"byteStride":32
	},
	{
		"buffer":8,
		"byteOffset":0,
		"byteLength":120,
		"target":34963
	},
	{
		"buffer":8,
		"byteOffset":120,
		"byteLength":768,
		"target":34962,
		"byteStride":32
	},
	{
		"buffer":9,
		"byteOffset":0,
		"byteLength":3840,
		"target":34963
	},
	{
		"buffer":9,
		"byteOffset":3840,
		"byteLength":20736,
		"target":34962,
		"byteStride":32
	},
	{
		"buffer":10,
		"byteOffset":0,
		"byteLength":1728,
		"target":34963
	},
	{
		"buffer":10,
		"byteOffset":1728,
		"byteLength":7680,
		"target":34962,
		"byteStride":32
	}],
	"buffers":[{
		"uri":"data:application/octet-stream;base64,",
		"byteLength":1308
	},
	{
		"uri":"data:application/octet-stream;base64,",
		"byteLength":61596
	},
	{
		"uri":"data:application/octet-stream;base64,",
		"byteLength":912
	},
	{
		"uri":"data:application/octet-stream;base64,",
		"byteLength":2696
	},
	{
		"uri":"data:application/octet-stream;base64,",
		"byteLength":736
	},
	{
		"uri":"data:application/octet-stream;base64,",
		"byteLength":888
	},
	{
		"uri":"data:application/octet-stream;base64,",
		"byteLength":3968
	},
	{
		"uri":"data:application/octet-stream;base64,",
		"byteLength":900
	},
	{
		"uri":"data:application/octet-stream;base64,",
		"byteLength":888
	},
	{
		"uri":"data:application/octet-stream;base64,",
		"byteLength":24576
	},
	{
		"uri":"data:application/octet-stream;base64,",
		"byteLength":9408
	}],
	"materials":[{
		"pbrMetallicRoughness":{
			"baseColorFactor":[0,
			0,
			0,
			1],
			"metallicFactor":1,
			"roughnessFactor":1
		},
		"emissiveFactor":[0,
		0,
		0],
		"alphaMode":"OPAQUE",
		"doubleSided":false,
		"name":"wire_134110008"
	},
	{
		"pbrMetallicRoughness":{
			"baseColorFactor":[1,
			1,
			1,
			1],
			"metallicFactor":0,
			"roughnessFactor":0.5
		},
		"emissiveFactor":[0,
		0,
		0],
		"alphaMode":"OPAQUE",
		"doubleSided":false,
		"name":"材质.6"
	},
	{
		"pbrMetallicRoughness":{
			"baseColorFactor":[0,
			0.648,
			0.8,
			1],
			"metallicFactor":1,
			"roughnessFactor":1
		},
		"emissiveFactor":[0,
		0,
		0],
		"alphaMode":"OPAQUE",
		"doubleSided":false,
		"name":"hddff"
	},
	{
		"pbrMetallicRoughness":{
			"baseColorFactor":[0.048,
			0.06,
			0.04,
			1],
			"metallicFactor":1,
			"roughnessFactor":1
		},
		"emissiveFactor":[0,
		0,
		0],
		"alphaMode":"OPAQUE",
		"doubleSided":false,
		"name":"wire_184228153"
	},
	{
		"pbrMetallicRoughness":{
			"baseColorFactor":[0.96,
			0.664,
			0.152,
			1],
			"metallicFactor":1,
			"roughnessFactor":1
		},
		"emissiveFactor":[0,
		0,
		0],
		"alphaMode":"OPAQUE",
		"doubleSided":false,
		"name":"wire_145028177"
	},
	{
		"pbrMetallicRoughness":{
			"baseColorFactor":[0.739,
			0.765,
			0.83,
			1],
			"metallicFactor":1,
			"roughnessFactor":1
		},
		"emissiveFactor":[0,
		0,
		0],
		"alphaMode":"OPAQUE",
		"doubleSided":false,
		"name":"wire_224143087"
	},
	{
		"pbrMetallicRoughness":{
			"baseColorFactor":[0.878,
			0.878,
			0.878,
			1],
			"metallicFactor":1,
			"roughnessFactor":1
		},
		"emissiveFactor":[0,
		0,
		0],
		"alphaMode":"OPAQUE",
		"doubleSided":false,
		"name":"wire_087224087"
	},
	{
		"pbrMetallicRoughness":{
			"baseColorFactor":[0,
			0,
			0,
			1],
			"metallicFactor":1,
			"roughnessFactor":1
		},
		"emissiveFactor":[0,
		0,
		0],
		"alphaMode":"OPAQUE",
		"doubleSided":false,
		"name":"wire_008110134"
	},
	{
		"pbrMetallicRoughness":{
			"baseColorFactor":[0.549,
			0.345,
			0.882,
			1],
			"metallicFactor":1,
			"roughnessFactor":1
		},
		"emissiveFactor":[0,
		0,
		0],
		"alphaMode":"OPAQUE",
		"doubleSided":false,
		"name":"wire_140088225"
	},
	{
		"pbrMetallicRoughness":{
			"baseColorFactor":[0.894,
			0.839,
			0.6,
			1],
			"metallicFactor":1,
			"roughnessFactor":1
		},
		"emissiveFactor":[0,
		0,
		0],
		"alphaMode":"OPAQUE",
		"doubleSided":false,
		"name":"wire_228214153"
	}]
}