<?xml version="1.0" standalone="no"?><!DOCTYPE svg PUBLIC "-//W3C//DTD SVG 1.1//EN" "http://www.w3.org/Graphics/SVG/1.1/DTD/svg11.dtd"><svg t="1753691362554" class="icon" viewBox="0 0 1024 1024" version="1.1" xmlns="http://www.w3.org/2000/svg" p-id="4555" xmlns:xlink="http://www.w3.org/1999/xlink" width="60" height="60"><path d="M104.727273 104.727273m23.272727 0l209.454545 0q23.272727 0 23.272728 23.272727l0 209.454545q0 23.272727-23.272728 23.272728l-209.454545 0q-23.272727 0-23.272727-23.272728l0-209.454545q0-23.272727 23.272727-23.272727Z" fill="#3293FB" p-id="4556"></path><path d="M104.727273 384m23.272727 0l209.454545 0q23.272727 0 23.272728 23.272727l0 209.454546q0 23.272727-23.272728 23.272727l-209.454545 0q-23.272727 0-23.272727-23.272727l0-209.454546q0-23.272727 23.272727-23.272727Z" fill="#52A4FC" p-id="4557"></path><path d="M128 663.272727h209.454545a23.272727 23.272727 0 0 1 23.272728 23.272728v209.454545a23.272727 23.272727 0 0 1-23.272728 23.272727h-104.727272c-70.690909 0-128-57.309091-128-128v-104.727272a23.272727 23.272727 0 0 1 23.272727-23.272728z" fill="#93C6FE" p-id="4558"></path><path d="M384 104.727273m23.272727 0l209.454546 0q23.272727 0 23.272727 23.272727l0 209.454545q0 23.272727-23.272727 23.272728l-209.454546 0q-23.272727 0-23.272727-23.272728l0-209.454545q0-23.272727 23.272727-23.272727Z" fill="#52A4FC" p-id="4559"></path><path d="M384 384m23.272727 0l209.454546 0q23.272727 0 23.272727 23.272727l0 209.454546q0 23.272727-23.272727 23.272727l-209.454546 0q-23.272727 0-23.272727-23.272727l0-209.454546q0-23.272727 23.272727-23.272727Z" fill="#93C6FE" p-id="4560"></path><path d="M663.272727 384m23.272728 0l209.454545 0q23.272727 0 23.272727 23.272727l0 209.454546q0 23.272727-23.272727 23.272727l-209.454545 0q-23.272727 0-23.272728-23.272727l0-209.454546q0-23.272727 23.272728-23.272727Z" fill="#B2D7FE" p-id="4561"></path><path d="M384 663.272727m23.272727 0l209.454546 0q23.272727 0 23.272727 23.272728l0 209.454545q0 23.272727-23.272727 23.272727l-209.454546 0q-23.272727 0-23.272727-23.272727l0-209.454545q0-23.272727 23.272727-23.272728Z" fill="#B2D7FE" p-id="4562"></path><path d="M663.272727 663.272727m23.272728 0l209.454545 0q23.272727 0 23.272727 23.272728l0 209.454545q0 23.272727-23.272727 23.272727l-209.454545 0q-23.272727 0-23.272728-23.272727l0-209.454545q0-23.272727 23.272728-23.272728Z" fill="#B2D7FE" p-id="4563"></path><path d="M686.545455 104.727273h104.727272c70.690909 0 128 57.309091 128 128v104.727272a23.272727 23.272727 0 0 1-23.272727 23.272728H686.545455a23.272727 23.272727 0 0 1-23.272728-23.272728V128a23.272727 23.272727 0 0 1 23.272728-23.272727z" fill="#93C6FE" p-id="4564"></path></svg>