<?xml version="1.0" standalone="no"?><!DOCTYPE svg PUBLIC "-//W3C//DTD SVG 1.1//EN" "http://www.w3.org/Graphics/SVG/1.1/DTD/svg11.dtd"><svg t="1732498590643" class="icon" viewBox="0 0 1024 1024" version="1.1" xmlns="http://www.w3.org/2000/svg" p-id="6251" xmlns:xlink="http://www.w3.org/1999/xlink" width="200" height="200"><path d="M838.412 525.287L657.943 687.573a17.653 17.653 0 0 1-11.825 4.54c-4.55 0-9.081-1.749-12.524-5.193L517.661 570.992c-6.915-6.9-6.915-18.119 0-25.025 6.914-6.914 18.124-6.914 25.038 0L646.77 650.02l167.986-151.05c7.255-6.543 18.464-5.954 24.984 1.318 6.533 7.26 5.937 18.439-1.328 24.999z" fill="#ffffff" p-id="6252"></path><path d="M679.924 847.671c-71.863 0-139.424-27.984-190.237-78.799-50.813-50.813-78.797-118.374-78.797-190.236 0-71.863 27.984-139.425 78.797-190.239 50.813-50.814 118.374-78.799 190.237-78.799s139.425 27.985 190.239 78.799c50.814 50.814 78.8 118.375 78.8 190.239 0 71.861-27.985 139.422-78.8 190.236s-118.376 78.799-190.239 78.799z m0-491.675c-122.762 0-222.636 99.875-222.636 222.64 0 122.763 99.874 222.637 222.636 222.637 122.765 0 222.641-99.874 222.641-222.637-0.001-122.764-99.877-222.64-222.641-222.64zM475.191 905.859c-25.434 0-46.54-16.819-54.346-39.707h-59.956c8.926 55.185 56.707 97.791 114.297 97.791 57.613 0 105.384-42.62 114.31-97.791h-59.945c-7.817 22.888-28.913 39.707-54.36 39.707zM302.501 337.89c-23.521 31.324-35.95 68.574-35.95 107.804v163.365c0 9.017 7.304 16.339 16.344 16.339 9.035 0 16.334-7.322 16.334-16.339V445.694c0-32.107 10.164-62.583 29.38-88.184 5.456-7.25 3.992-17.468-3.194-22.864-7.272-5.428-17.495-3.924-22.914 3.244z" fill="#ffffff" p-id="6253"></path><path d="M451.244 816.655c0-16.05-12.986-29.035-29.04-29.035H164.733c22.864-31.65 46.398-76.132 49.924-128.207 3.117-45.838 2.492-120.76 2.035-175.503l-0.286-41.863c0-71.528 30.35-139.766 83.328-187.239 51.451-46.181 116.966-67.504 185.376-60.191 54.907 5.899 104.886 31.6 144.482 74.197 10.943 11.853 29.321 12.474 41.007 1.531 11.799-10.897 12.475-29.275 1.532-41.011-37.518-40.417-84.479-68.836-135.231-83.213v-4.201c0-43.621-34.944-79.077-77.944-79.077s-77.939 35.456-77.939 79.077v3.987c-43.802 12.012-84.718 33.911-120.087 65.67-65.23 58.492-102.603 142.498-102.603 230.475l0.29 42.375c0.453 53.774 1.069 127.405-1.93 171.021-5.284 78.279-74.818 138.467-75.502 139.092-9.302 7.884-12.646 20.766-8.45 32.166 4.2 11.409 15.088 19.003 27.232 19.003h322.242c16.049-0.005 29.035-12.996 29.035-29.054z m7.721-695.714c8.84 0 16.239 6.565 18.713 15.179-12.592-0.779-25.066-0.807-37.417-0.041 2.482-8.595 9.868-15.138 18.704-15.138z" fill="#ffffff" p-id="6254"></path></svg>