<?xml version="1.0" standalone="no"?><!DOCTYPE svg PUBLIC "-//W3C//DTD SVG 1.1//EN" "http://www.w3.org/Graphics/SVG/1.1/DTD/svg11.dtd"><svg t="1752824212916" class="icon" viewBox="0 0 1024 1024" version="1.1" xmlns="http://www.w3.org/2000/svg" p-id="17743" xmlns:xlink="http://www.w3.org/1999/xlink" width="60" height="60"><path d="M998.92866111 510.06820369c0 268.61082279-217.76135948 486.36251637-486.3804673 486.36251636-268.62048867 0-486.38184814-217.7516936-486.38184814-486.36251636 0-268.60944194 217.76135948-486.3597547 486.38184814-486.3597547 268.61910784 0 486.38046731 217.7516936 486.3804673 486.3597547z m-486.3804673-400.16767052c-221.01462045 0-400.18424061 179.16271596-400.1842406 400.16767052 0 221.00633541 179.16962016 400.16767052 400.1842406 400.16767052 221.01323962 0 400.18147893-179.1613351 400.18147892-400.16767052 0-221.00495457-179.16823931-400.16767052-400.18147892-400.16767052z" p-id="17744" fill="#3B3B3B"></path><path d="M289.98703163 510.06820369a217.48242963 217.48242963 0 1 0 445.12094352 0 217.48242963 217.48242963 0 1 0-445.12094352 0z" p-id="17745" fill="#3B3B3B"></path></svg>