<?xml version="1.0" standalone="no"?><!DOCTYPE svg PUBLIC "-//W3C//DTD SVG 1.1//EN" "http://www.w3.org/Graphics/SVG/1.1/DTD/svg11.dtd"><svg t="1752824050772" class="icon" viewBox="0 0 1024 1024" version="1.1" xmlns="http://www.w3.org/2000/svg" p-id="8403" xmlns:xlink="http://www.w3.org/1999/xlink" width="60" height="60"><path d="M848 432a80.064 80.064 0 0 0-73.216 48H217.216A80.096 80.096 0 0 0 144 432 80.096 80.096 0 0 0 64 512c0 44.128 35.904 80 80 80A80 80 0 0 0 217.216 544h557.536a80 80 0 0 0 73.216 48c44.128 0 80-35.872 80-80a80.032 80.032 0 0 0-79.968-80z" p-id="8404" fill="#3B3B3B"></path></svg>